<svg width="21" height="21" viewBox="0 0 21 21" fill="none" xmlns="http://www.w3.org/2000/svg">
<path fill-rule="evenodd" clip-rule="evenodd" d="M10.5 18.375C11.5342 18.375 12.5582 18.1713 13.5136 17.7756C14.4691 17.3798 15.3372 16.7997 16.0685 16.0685C16.7997 15.3372 17.3798 14.4691 17.7756 13.5136C18.1713 12.5582 18.375 11.5342 18.375 10.5C18.375 9.46584 18.1713 8.44181 17.7756 7.48637C17.3798 6.53093 16.7997 5.6628 16.0685 4.93153C15.3372 4.20027 14.4691 3.6202 13.5136 3.22445C12.5582 2.82869 11.5342 2.625 10.5 2.625C8.41142 2.625 6.40838 3.45468 4.93153 4.93153C3.45469 6.40838 2.625 8.41142 2.625 10.5C2.625 12.5886 3.45469 14.5916 4.93153 16.0685C6.40838 17.5453 8.41142 18.375 10.5 18.375ZM8.49362 9.00638C8.41291 8.9228 8.31636 8.85614 8.2096 8.81029C8.10285 8.76443 7.98803 8.74029 7.87185 8.73928C7.75567 8.73827 7.64045 8.76041 7.53292 8.80441C7.42538 8.8484 7.32769 8.91337 7.24553 8.99553C7.16337 9.07769 7.0984 9.17538 7.05441 9.28292C7.01041 9.39045 6.98827 9.50567 6.98928 9.62185C6.99029 9.73803 7.01443 9.85285 7.06029 9.9596C7.10614 10.0664 7.1728 10.1629 7.25638 10.2436L9.88138 12.8686C10.0455 13.0327 10.268 13.1248 10.5 13.1248C10.732 13.1248 10.9545 13.0327 11.1186 12.8686L13.7436 10.2436C13.903 10.0786 13.9912 9.85757 13.9892 9.62815C13.9872 9.39873 13.8952 9.17927 13.733 9.01703C13.5707 8.8548 13.3513 8.76278 13.1219 8.76079C12.8924 8.75879 12.6714 8.84699 12.5064 9.00638L10.5 11.0128L8.49362 9.00638Z" fill="#808080"/>
</svg>
