<svg width="25" height="25" viewBox="0 0 25 25" fill="none" xmlns="http://www.w3.org/2000/svg">
<path d="M15.0896 3.27397C15.3554 3.34875 15.5807 3.52606 15.7159 3.76691C15.8511 4.00777 15.8851 4.29244 15.8104 4.55835L11.1958 21.0042C11.1589 21.1359 11.0964 21.2591 11.0118 21.3666C10.9273 21.4742 10.8224 21.5641 10.7031 21.6311C10.5839 21.6982 10.4526 21.741 10.3167 21.7573C10.1809 21.7736 10.0432 21.763 9.91143 21.7261C9.7797 21.6891 9.65653 21.6266 9.54896 21.5421C9.44139 21.4575 9.35152 21.3526 9.28449 21.2334C9.21746 21.1141 9.17457 20.9828 9.15829 20.847C9.142 20.7111 9.15262 20.5734 9.18956 20.4417L13.8041 3.99585C13.8411 3.86399 13.9036 3.7407 13.9882 3.63304C14.0728 3.52538 14.1778 3.43545 14.2972 3.36841C14.4166 3.30136 14.548 3.25851 14.684 3.24231C14.8199 3.2261 14.9578 3.23686 15.0896 3.27397ZM7.50726 7.34376C7.70255 7.5391 7.81225 7.80401 7.81225 8.08022C7.81225 8.35643 7.70255 8.62134 7.50726 8.81668L3.82497 12.5L7.50726 16.1823C7.60405 16.279 7.68083 16.3938 7.73324 16.5202C7.78564 16.6466 7.81264 16.7821 7.81268 16.9189C7.81273 17.0557 7.78583 17.1912 7.73352 17.3177C7.6812 17.4441 7.6045 17.559 7.50779 17.6557C7.41107 17.7525 7.29624 17.8293 7.16986 17.8817C7.04347 17.9341 6.908 17.9611 6.77117 17.9612C6.63435 17.9612 6.49886 17.9343 6.37244 17.882C6.24601 17.8297 6.13113 17.753 6.03435 17.6563L1.61456 13.2365C1.41927 13.0411 1.30957 12.7762 1.30957 12.5C1.30957 12.2238 1.41927 11.9589 1.61456 11.7636L6.03435 7.34376C6.22969 7.14848 6.49459 7.03878 6.77081 7.03878C7.04702 7.03878 7.31192 7.14848 7.50726 7.34376ZM17.4927 8.81668C17.3932 8.72059 17.3138 8.60565 17.2592 8.47856C17.2047 8.35147 17.1759 8.21478 17.1747 8.07647C17.1735 7.93816 17.1999 7.80099 17.2522 7.67298C17.3046 7.54496 17.382 7.42866 17.4798 7.33085C17.5776 7.23305 17.6939 7.1557 17.8219 7.10332C17.9499 7.05095 18.0871 7.02459 18.2254 7.02579C18.3637 7.027 18.5004 7.05573 18.6275 7.11032C18.7546 7.16492 18.8695 7.24427 18.9656 7.34376L23.3854 11.7636C23.5807 11.9589 23.6904 12.2238 23.6904 12.5C23.6904 12.7762 23.5807 13.0411 23.3854 13.2365L18.9656 17.6563C18.7701 17.8516 18.5051 17.9613 18.2288 17.9612C17.9524 17.9611 17.6875 17.8512 17.4922 17.6557C17.2968 17.4603 17.1872 17.1952 17.1873 16.9189C17.1874 16.6426 17.2972 16.3776 17.4927 16.1823L21.175 12.5L17.4927 8.81668Z" fill="#808080"/>
</svg>
