<svg width="26" height="25" viewBox="0 0 26 25" fill="none" xmlns="http://www.w3.org/2000/svg">
<path d="M10.1354 22.9167L9.71875 19.5834C9.49305 19.4966 9.28055 19.3924 9.08125 19.2709C8.88194 19.1493 8.68646 19.0191 8.49479 18.8803L5.39583 20.1823L2.53125 15.2344L5.21354 13.2032C5.19618 13.0816 5.1875 12.9646 5.1875 12.8521V12.149C5.1875 12.0358 5.19618 11.9184 5.21354 11.7969L2.53125 9.76567L5.39583 4.81775L8.49479 6.11983C8.68576 5.98094 8.88542 5.85074 9.09375 5.72921C9.30208 5.60768 9.51042 5.50351 9.71875 5.41671L10.1354 2.08337H15.8646L16.2812 5.41671C16.5069 5.50351 16.7198 5.60768 16.9198 5.72921C17.1198 5.85074 17.3149 5.98094 17.5052 6.11983L20.6042 4.81775L23.4687 9.76567L20.7865 11.7969C20.8038 11.9184 20.8125 12.0358 20.8125 12.149V12.8511C20.8125 12.9643 20.7951 13.0816 20.7604 13.2032L23.4427 15.2344L20.5781 20.1823L17.5052 18.8803C17.3142 19.0191 17.1146 19.1493 16.9062 19.2709C16.6979 19.3924 16.4896 19.4966 16.2812 19.5834L15.8646 22.9167H10.1354ZM13.0521 16.1459C14.059 16.1459 14.9184 15.79 15.6302 15.0782C16.342 14.3664 16.6979 13.507 16.6979 12.5C16.6979 11.4931 16.342 10.6337 15.6302 9.92192C14.9184 9.21011 14.059 8.85421 13.0521 8.85421C12.0278 8.85421 11.1639 9.21011 10.4604 9.92192C9.75694 10.6337 9.40555 11.4931 9.40625 12.5C9.40625 13.507 9.75799 14.3664 10.4615 15.0782C11.1649 15.79 12.0285 16.1459 13.0521 16.1459Z" fill="#808080"/>
</svg>
