<svg width="16" height="16" viewBox="0 0 16 16" fill="none" xmlns="http://www.w3.org/2000/svg">
<path d="M8.00021 3.3335C3.79555 3.3335 1.75555 7.12216 1.39355 7.87216C1.37396 7.91199 1.36377 7.95578 1.36377 8.00016C1.36377 8.04455 1.37396 8.08834 1.39355 8.12816C1.75488 8.87816 3.79488 12.6668 8.00021 12.6668C12.2055 12.6668 14.2449 8.87816 14.6069 8.12816C14.6265 8.08834 14.6367 8.04455 14.6367 8.00016C14.6367 7.95578 14.6265 7.91199 14.6069 7.87216C14.2455 7.12216 12.2055 3.3335 8.00021 3.3335Z" stroke="#8A8A8A" stroke-width="1.33333" stroke-linecap="round" stroke-linejoin="round"/>
<path d="M8 10C9.10457 10 10 9.10457 10 8C10 6.89543 9.10457 6 8 6C6.89543 6 6 6.89543 6 8C6 9.10457 6.89543 10 8 10Z" stroke="#8A8A8A" stroke-width="1.33333" stroke-linecap="round" stroke-linejoin="round"/>
</svg>
