<svg width="33" height="33" viewBox="0 0 33 33" fill="none" xmlns="http://www.w3.org/2000/svg">
<rect x="7" y="7" width="19" height="7" fill="#D7C19A"/>
<rect x="7" y="19" width="19" height="7" fill="#EDECD8"/>
<path d="M7.52857 15.3547H25.4108C26.2549 15.3547 26.9394 14.6702 26.9394 13.8261V7.52857C26.9394 6.68446 26.2549 6 25.4108 6H7.52857C6.68446 6 6 6.68424 6 7.52857V13.8261C6 14.6702 6.68446 15.3547 7.52857 15.3547ZM7.48277 7.52857C7.48277 7.50327 7.50327 7.48277 7.52857 7.48277H25.4108C25.4361 7.48277 25.4566 7.50327 25.4566 7.52857V13.8261C25.4566 13.8514 25.4361 13.8719 25.4108 13.8719H7.52857C7.50327 13.8719 7.48277 13.8514 7.48277 13.8261V7.52857Z" fill="#4A4A4A"/>
<path d="M10.8754 11.8475C11.0444 12.0434 11.29 12.1557 11.5487 12.1557C11.8074 12.1557 12.0528 12.0434 12.222 11.8475L13.5183 10.3464C13.786 10.0365 13.7515 9.56838 13.4418 9.30075C13.1318 9.0329 12.6637 9.06737 12.3961 9.37731L11.5485 10.3586L10.7009 9.37731C10.4333 9.06737 9.96518 9.0329 9.65523 9.30075C9.34528 9.56838 9.31104 10.0365 9.57867 10.3464L10.8754 11.8475Z" fill="#4A4A4A"/>
<path d="M26.9394 19.1738C26.9394 18.3297 26.2549 17.6453 25.4108 17.6453H7.52857C6.68446 17.6453 6 18.3297 6 19.1738V25.4714C6 26.3155 6.68446 26.9999 7.52857 26.9999H25.4108C26.2549 26.9999 26.9394 26.3155 26.9394 25.4714V19.1738ZM25.4566 25.4714C25.4566 25.4967 25.4361 25.5172 25.4108 25.5172H7.52857C7.50327 25.5172 7.48277 25.4967 7.48277 25.4714V19.1738C7.48277 19.1485 7.50327 19.128 7.52857 19.128H25.4108C25.4361 19.128 25.4566 19.1485 25.4566 19.1738V25.4714Z" fill="#4A4A4A"/>
<path d="M12.3963 21.0228L11.5487 22.0041L10.7011 21.0228C10.4335 20.7129 9.96539 20.6784 9.65544 20.9463C9.3455 21.2139 9.31125 21.682 9.57888 21.9919L10.8752 23.4932C11.0442 23.6891 11.2898 23.8014 11.5485 23.8014C11.8072 23.8014 12.0526 23.6891 12.2218 23.4932L13.5181 21.9921C13.7857 21.6822 13.7513 21.2141 13.4415 20.9465C13.1318 20.6784 12.6637 20.7129 12.3963 21.0228Z" fill="#4A4A4A"/>
</svg>
