<svg width="33" height="33" viewBox="0 0 33 33" fill="none" xmlns="http://www.w3.org/2000/svg">
<path d="M24.375 24.375H12.825C11.3549 24.375 10.6198 24.375 10.0583 24.0889C9.56435 23.8372 9.16278 23.4357 8.91111 22.9417C8.625 22.3802 8.625 21.6452 8.625 20.175V8.625M18.625 14.75L17.2134 13.2298C16.857 12.846 16.6788 12.654 16.4702 12.5828C16.2869 12.5203 16.0881 12.5203 15.9048 12.5828C15.6962 12.654 15.5181 12.846 15.1616 13.2298L12.4991 16.0972C12.3608 16.2461 12.2917 16.3204 12.2423 16.4059C12.1986 16.4816 12.1664 16.5635 12.147 16.6488C12.125 16.745 12.125 16.8466 12.125 17.0498V19.475C12.125 19.9651 12.125 20.2101 12.2204 20.3973C12.3043 20.5619 12.4381 20.6957 12.6028 20.7796C12.7899 20.875 13.035 20.875 13.525 20.875H22.1C22.5901 20.875 22.8351 20.875 23.0223 20.7796C23.1869 20.6957 23.3207 20.5619 23.4046 20.3973C23.5 20.2101 23.5 19.9651 23.5 19.475V17.0498C23.5 16.8466 23.5 16.745 23.478 16.6488C23.4585 16.5635 23.4264 16.4816 23.3827 16.4059C23.3333 16.3204 23.2642 16.2461 23.1259 16.0972L21.875 14.75C21.717 14.5799 21.638 14.4948 21.5586 14.4401C21.2597 14.2345 20.8652 14.2345 20.5665 14.4401C20.487 14.4948 20.408 14.5799 20.25 14.75C20.092 14.9201 20.013 15.0052 19.9335 15.0599C19.6348 15.2655 19.2402 15.2655 18.9415 15.0599C18.862 15.0052 18.783 14.9201 18.625 14.75Z" stroke="#4A4A4A" stroke-width="1.5" stroke-linecap="round" stroke-linejoin="round"/>
<path d="M18.625 14.75L17.2134 13.2298C16.857 12.8459 16.6788 12.654 16.4702 12.5828C16.2869 12.5202 16.0881 12.5202 15.9048 12.5828C15.6962 12.654 15.5181 12.8459 15.1616 13.2298L12.4991 16.0971C12.3608 16.2461 12.2917 16.3204 12.2423 16.4059C12.1986 16.4816 12.1664 16.5635 12.147 16.6488C12.125 16.745 12.125 16.8466 12.125 17.0497V19.475C12.125 19.9651 12.125 20.2101 12.2204 20.3972C12.3043 20.5619 12.4381 20.6957 12.6028 20.7796C12.7899 20.875 13.035 20.875 13.525 20.875H22.1C22.5901 20.875 22.8351 20.875 23.0222 20.7796C23.1869 20.6957 23.3207 20.5619 23.4046 20.3972C23.5 20.2101 23.5 19.9651 23.5 19.475V17.0497C23.5 16.8466 23.5 16.745 23.478 16.6488C23.4585 16.5635 23.4264 16.4816 23.3827 16.4059C23.3333 16.3204 23.2642 16.2461 23.1259 16.0971L21.875 14.75C21.717 14.5798 21.638 14.4948 21.5585 14.4401C21.2597 14.2345 20.8652 14.2345 20.5665 14.4401C20.487 14.4948 20.408 14.5798 20.25 14.75C20.092 14.9201 20.013 15.0052 19.9335 15.0599C19.6348 15.2654 19.2402 15.2654 18.9415 15.0599C18.862 15.0052 18.783 14.9201 18.625 14.75Z" fill="#D7C19A" stroke="#4A4A4A" stroke-width="1.5" stroke-linecap="round" stroke-linejoin="round"/>
</svg>
