<svg width="33" height="33" viewBox="0 0 33 33" fill="none" xmlns="http://www.w3.org/2000/svg">
<g clip-path="url(#clip0_1420_326)">
<rect x="7" y="7" width="19" height="8" fill="#D7C19A"/>
<path d="M27 13.5377V8.05948C27 6.92671 26.0784 6.00513 24.9457 6.00513H8.05435C6.92158 6.00513 6 6.92671 6 8.05948V13.5377C6 14.6705 6.92158 15.5921 8.05435 15.5921H13.5874L16.8944 25.5131C17.1017 26.1349 17.9859 26.1363 18.1937 25.5131L19.2959 22.2063L23.6839 26.5943C24.2179 27.1283 25.0867 27.1283 25.6208 26.5943L26.5892 25.6259C27.1231 25.0919 27.1231 24.223 26.5892 23.6891L22.2012 19.301L25.508 18.1988C26.1301 17.9913 26.1308 17.1072 25.508 16.8995L21.5859 15.5922H24.9457C26.0784 15.5921 27 14.6705 27 13.5377ZM23.1259 17.5491L20.7169 18.3521C20.2342 18.513 20.0901 19.1267 20.4493 19.4859L25.6207 24.6574L24.6522 25.6259L19.4808 20.4544C19.1208 20.0943 18.5078 20.2398 18.3469 20.722L17.544 23.131L14.753 14.7581C14.9212 14.8142 22.5008 17.3407 23.1259 17.5491ZM17.4772 14.2226V14.2225L13.8869 13.0258C13.353 12.8476 12.8424 13.3572 13.0206 13.892L13.1309 14.2226H8.05435C7.67676 14.2226 7.36955 13.9154 7.36955 13.5378V8.05952C7.36955 7.68193 7.67676 7.37472 8.05435 7.37472H24.9457C25.3232 7.37472 25.6304 7.68193 25.6304 8.05952V13.5378C25.6304 13.9154 25.3232 14.2226 24.9457 14.2226L17.4772 14.2226Z" fill="#4A4A4A"/>
</g>
<defs>
<clipPath id="clip0_1420_326">
<rect width="21" height="21" fill="white" transform="translate(6 6)"/>
</clipPath>
</defs>
</svg>
