<svg width="33" height="33" viewBox="0 0 33 33" fill="none" xmlns="http://www.w3.org/2000/svg">
<path d="M23.5 6.89917L12.5 18.3992L15.5 21.8992L27 10.3992C27.8 7.59917 25 6.89917 23.5 6.89917Z" fill="#EDECD8"/>
<path d="M8.5 20.3992L10.5 18.8992H12L15 22.8992L13.5 24.8992L11 25.8992H8V23.8992L8.5 20.3992Z" fill="#C9A777"/>
<path d="M27.0672 7.07973C25.556 5.64009 23.1811 5.64009 21.6699 7.07973L11.1963 17.5533C10.0239 17.6702 8.93729 18.2177 8.14529 19.0896C7.35329 19.9615 6.91197 21.097 6.9084 22.2743V25.0916H5.9542C5.42699 25.0916 5 25.5186 5 26.0458C5 26.573 5.42699 27 5.9542 27H11.393C12.4402 26.9964 13.4564 26.6482 14.2866 26.0088C15.1156 25.3695 15.712 24.475 15.9815 23.4635C16.0877 23.4182 16.1855 23.3538 16.2678 23.2727L27.0669 12.4772C28.5566 10.9863 28.5566 8.57097 27.0669 7.07997L27.0672 7.07973ZM11.3933 25.0914H8.81695V22.2741C8.81814 20.9108 9.78068 19.7371 11.119 19.4687L14.2237 22.5722V22.5734C14.052 24.0071 12.8377 25.0878 11.3933 25.0914ZM25.7158 11.128L15.5964 21.2486L12.8984 18.5506L23.019 8.42907C23.774 7.70984 24.962 7.70984 25.7182 8.42907C26.4624 9.17454 26.4624 10.3828 25.7182 11.1283L25.7158 11.128Z" fill="#4A4A4A"/>
</svg>
