<svg width="33" height="33" viewBox="0 0 33 33" fill="none" xmlns="http://www.w3.org/2000/svg">
<path d="M8.625 22.625V14.75C8.625 14.5179 8.71719 14.2954 8.88128 14.1313C9.04538 13.9672 9.26794 13.875 9.5 13.875H19.125C19.3571 13.875 19.5796 13.9672 19.7437 14.1313C19.9078 14.2954 20 14.5179 20 14.75V22.625C20 22.8571 19.9078 23.0796 19.7437 23.2437C19.5796 23.4078 19.3571 23.5 19.125 23.5H9.5C9.26794 23.5 9.04538 23.4078 8.88128 23.2437C8.71719 23.0796 8.625 22.8571 8.625 22.625ZM8.625 22.625L12.3814 18.8686C12.5455 18.7046 12.768 18.6124 13 18.6124C13.232 18.6124 13.4545 18.7046 13.6186 18.8686L18.25 23.5M12.125 11.25V10.375C12.125 10.1429 12.2172 9.92038 12.3813 9.75628C12.5454 9.59219 12.7679 9.5 13 9.5H23.5C23.7321 9.5 23.9546 9.59219 24.1187 9.75628C24.2828 9.92038 24.375 10.1429 24.375 10.375V19.125C24.375 19.3571 24.2828 19.5796 24.1187 19.7437C23.9546 19.9078 23.7321 20 23.5 20H22.625M16.5 16.5V16.5088Z" fill="#EDECD8"/>
<path d="M8.625 22.625V14.75C8.625 14.5179 8.71719 14.2954 8.88128 14.1313C9.04538 13.9672 9.26794 13.875 9.5 13.875H19.125C19.3571 13.875 19.5796 13.9672 19.7437 14.1313C19.9078 14.2954 20 14.5179 20 14.75V22.625C20 22.8571 19.9078 23.0796 19.7437 23.2437C19.5796 23.4078 19.3571 23.5 19.125 23.5H9.5C9.26794 23.5 9.04538 23.4078 8.88128 23.2437C8.71719 23.0796 8.625 22.8571 8.625 22.625ZM8.625 22.625L12.3814 18.8686C12.5455 18.7046 12.768 18.6124 13 18.6124C13.232 18.6124 13.4545 18.7046 13.6186 18.8686L18.25 23.5M12.125 11.25V10.375C12.125 10.1429 12.2172 9.92038 12.3813 9.75628C12.5454 9.59219 12.7679 9.5 13 9.5H23.5C23.7321 9.5 23.9546 9.59219 24.1187 9.75628C24.2828 9.92038 24.375 10.1429 24.375 10.375V19.125C24.375 19.3571 24.2828 19.5796 24.1187 19.7437C23.9546 19.9078 23.7321 20 23.5 20H22.625M16.5 16.5V16.5088" stroke="#4A4A4A" stroke-width="1.5" stroke-linecap="round" stroke-linejoin="round"/>
<path d="M8.625 22.6251L12.3814 18.8687C12.5455 18.7047 12.768 18.6125 13 18.6125C13.232 18.6125 13.4545 18.7047 13.6186 18.8687L18.25 23.5001" fill="#D7C19A"/>
<path d="M20 22.6251C20 22.8572 19.9078 23.0797 19.7437 23.2438C19.5796 23.4079 19.3571 23.5001 19.125 23.5001H9.5C9.26794 23.5001 9.04538 23.4079 8.88128 23.2438C8.71719 23.0797 8.625 22.8572 8.625 22.6251L12.3814 18.8687C12.5455 18.7047 12.768 18.6125 13 18.6125C13.232 18.6125 13.4545 18.7047 13.6186 18.8687L18.25 23.5001" stroke="#4A4A4A" stroke-width="1.5" stroke-linecap="round" stroke-linejoin="round"/>
</svg>
