<svg width="33" height="33" viewBox="0 0 33 33" fill="none" xmlns="http://www.w3.org/2000/svg">
<circle cx="16.5" cy="16.5" r="9.5" fill="#EDECD8"/>
<path fill-rule="evenodd" clip-rule="evenodd" d="M16.5 25.6875C11.4259 25.6875 7.3125 21.5728 7.3125 16.5C7.3125 11.4272 11.4259 7.3125 16.5 7.3125C21.5741 7.3125 25.6875 11.4272 25.6875 16.5C25.6875 21.5728 21.5741 25.6875 16.5 25.6875ZM16.5 6C10.7007 6 6 10.6987 6 16.5C6 22.3013 10.7007 27 16.5 27C22.2993 27 27 22.3013 27 16.5C27 10.6987 22.2993 6 16.5 6ZM20.4375 15.8438H17.1562V12.5625C17.1562 12.2016 16.8629 11.9062 16.5 11.9062C16.1371 11.9062 15.8438 12.2016 15.8438 12.5625V15.8438H12.5625C12.1996 15.8438 11.9062 16.1391 11.9062 16.5C11.9062 16.8609 12.1996 17.1562 12.5625 17.1562H15.8438V20.4375C15.8438 20.7984 16.1371 21.0938 16.5 21.0938C16.8629 21.0938 17.1562 20.7984 17.1562 20.4375V17.1562H20.4375C20.8004 17.1562 21.0938 16.8609 21.0938 16.5C21.0938 16.1391 20.8004 15.8438 20.4375 15.8438Z" fill="#4A4A4A"/>
</svg>
