<svg width="34" height="33" viewBox="0 0 34 33" fill="none" xmlns="http://www.w3.org/2000/svg">
<path d="M17.5 26.1924C22.8529 26.1924 27.1923 21.853 27.1923 16.5C27.1923 11.1471 22.8529 6.80774 17.5 6.80774C12.1471 6.80774 7.8077 11.1471 7.8077 16.5C7.8077 21.853 12.1471 26.1924 17.5 26.1924Z" fill="#EDECD8"/>
<path d="M17.5 6C15.4233 6 13.3932 6.61581 11.6665 7.76957C9.9398 8.92332 8.59399 10.5632 7.79927 12.4818C7.00455 14.4004 6.79661 16.5116 7.20176 18.5484C7.6069 20.5852 8.60693 22.4562 10.0754 23.9246C11.5438 25.3931 13.4148 26.3931 15.4516 26.7982C17.4884 27.2034 19.5996 26.9954 21.5182 26.2007C23.4368 25.406 25.0767 24.0602 26.2304 22.3335C27.3842 20.6068 28 18.5767 28 16.5C27.9968 13.7162 26.8896 11.0473 24.9211 9.07886C22.9527 7.11041 20.2838 6.00315 17.5 6ZM17.5 25.3846C15.7428 25.3846 14.025 24.8635 12.564 23.8873C11.1029 22.911 9.96415 21.5234 9.29169 19.9C8.61923 18.2765 8.44329 16.4901 8.7861 14.7667C9.12892 13.0432 9.9751 11.4602 11.2176 10.2176C12.4602 8.97509 14.0433 8.12891 15.7667 7.7861C17.4901 7.44328 19.2765 7.61923 20.9 8.29169C22.5234 8.96414 23.911 10.1029 24.8873 11.564C25.8635 13.025 26.3846 14.7428 26.3846 16.5C26.382 18.8555 25.445 21.1138 23.7794 22.7794C22.1138 24.445 19.8555 25.3819 17.5 25.3846ZM18.7115 16.5C18.7115 16.7396 18.6405 16.9739 18.5074 17.1731C18.3742 17.3723 18.185 17.5276 17.9636 17.6193C17.7423 17.711 17.4987 17.735 17.2636 17.6883C17.0286 17.6415 16.8128 17.5261 16.6433 17.3567C16.4739 17.1872 16.3585 16.9714 16.3117 16.7364C16.265 16.5013 16.289 16.2577 16.3807 16.0364C16.4724 15.815 16.6277 15.6258 16.8269 15.4926C17.0261 15.3595 17.2604 15.2885 17.5 15.2885C17.8212 15.2888 18.1292 15.4166 18.3563 15.6437C18.5834 15.8708 18.7112 16.1788 18.7115 16.5ZM23.5577 16.5C23.5577 16.7396 23.4866 16.9739 23.3535 17.1731C23.2204 17.3723 23.0312 17.5276 22.8098 17.6193C22.5884 17.711 22.3448 17.735 22.1098 17.6883C21.8748 17.6415 21.6589 17.5261 21.4895 17.3567C21.32 17.1872 21.2046 16.9714 21.1579 16.7364C21.1111 16.5013 21.1351 16.2577 21.2268 16.0364C21.3185 15.815 21.4738 15.6258 21.6731 15.4926C21.8723 15.3595 22.1065 15.2885 22.3462 15.2885C22.6674 15.2888 22.9753 15.4166 23.2024 15.6437C23.4296 15.8708 23.5573 16.1788 23.5577 16.5ZM13.8654 16.5C13.8654 16.7396 13.7943 16.9739 13.6612 17.1731C13.5281 17.3723 13.3389 17.5276 13.1175 17.6193C12.8961 17.711 12.6525 17.735 12.4175 17.6883C12.1825 17.6415 11.9666 17.5261 11.7972 17.3567C11.6277 17.1872 11.5123 16.9714 11.4656 16.7364C11.4188 16.5013 11.4428 16.2577 11.5345 16.0364C11.6262 15.815 11.7815 15.6258 11.9808 15.4926C12.18 15.3595 12.4142 15.2885 12.6538 15.2885C12.9751 15.2888 13.283 15.4166 13.5101 15.6437C13.7373 15.8708 13.865 16.1788 13.8654 16.5Z" fill="#4A4A4A"/>
</svg>
