<svg width="33" height="33" viewBox="0 0 33 33" fill="none" xmlns="http://www.w3.org/2000/svg">
<path d="M15.1005 7.13452C15.3887 6.48781 15.5329 6.16446 15.7337 6.06488C15.908 5.97837 16.1127 5.97837 16.287 6.06488C16.4877 6.16446 16.6319 6.48781 16.9202 7.13452L19.2162 12.2856C19.3015 12.4768 19.3441 12.5724 19.4101 12.6456C19.4684 12.7104 19.5397 12.7622 19.6193 12.7976C19.7093 12.8377 19.8134 12.8487 20.0216 12.8707L25.6301 13.4626C26.3342 13.5369 26.6862 13.5741 26.843 13.7342C26.9791 13.8733 27.0423 14.068 27.014 14.2606C26.9813 14.4822 26.7184 14.7192 26.1924 15.1932L22.0029 18.9687C21.8475 19.1088 21.7696 19.1789 21.7205 19.2642C21.6769 19.3398 21.6496 19.4236 21.6405 19.5102C21.6302 19.6082 21.6518 19.7106 21.6953 19.9154L22.8655 25.4323C23.0124 26.125 23.0859 26.4713 22.982 26.6697C22.8918 26.8423 22.7262 26.9626 22.5343 26.9951C22.3134 27.0324 22.0067 26.8556 21.3934 26.5019L16.508 23.6841C16.3267 23.5795 16.2361 23.5273 16.1397 23.5068C16.0544 23.4887 15.9662 23.4887 15.881 23.5068C15.7846 23.5273 15.6939 23.5795 15.5126 23.6841L10.6273 26.5019C10.014 26.8556 9.70732 27.0324 9.48642 26.9951C9.29453 26.9626 9.12887 26.8423 9.03867 26.6697C8.93484 26.4713 9.00829 26.125 9.15521 25.4323L10.3253 19.9154C10.3688 19.7106 10.3905 19.6082 10.3802 19.5102C10.3711 19.4236 10.3438 19.3398 10.3002 19.2642C10.251 19.1789 10.1733 19.1088 10.0178 18.9687L5.82832 15.1932C5.30235 14.7192 5.03936 14.4822 5.00667 14.2606C4.97828 14.068 5.04154 13.8733 5.17769 13.7342C5.33443 13.5741 5.68649 13.5369 6.39062 13.4626L11.9991 12.8707C12.2073 12.8487 12.3114 12.8377 12.4014 12.7976C12.481 12.7622 12.5523 12.7104 12.6106 12.6456C12.6766 12.5724 12.7192 12.4768 12.8044 12.2856L15.1005 7.13452Z" fill="#EDECD8" stroke="#4A4A4A" stroke-width="1.5" stroke-linecap="round" stroke-linejoin="round"/>
</svg>
