<svg width="33" height="33" viewBox="0 0 33 33" fill="none" xmlns="http://www.w3.org/2000/svg">
<path d="M26.5 15.8333H15.8333V26.4999H26.5V15.8333Z" fill="#D7C19A"/>
<path d="M26.5 6.5H6.5V11.8333H26.5V6.5Z" fill="#EDECD8"/>
<path d="M11.8333 15.8333H6.5V25.1666H11.8333V15.8333Z" fill="#EDECD8"/>
<path d="M25.25 7.75V11.25H7.75V7.75H25.25ZM25.25 6H7.75C7.28587 6 6.84075 6.18437 6.51256 6.51256C6.18437 6.84075 6 7.28587 6 7.75V11.25C6 11.7141 6.18437 12.1592 6.51256 12.4874C6.84075 12.8156 7.28587 13 7.75 13H25.25C25.7141 13 26.1592 12.8156 26.4874 12.4874C26.8156 12.1592 27 11.7141 27 11.25V7.75C27 7.28587 26.8156 6.84075 26.4874 6.51256C26.1592 6.18437 25.7141 6 25.25 6Z" fill="#4A4A4A"/>
<path d="M11.25 16.5V25.25H7.75V16.5H11.25ZM11.25 14.75H7.75C7.28587 14.75 6.84075 14.9344 6.51256 15.2626C6.18437 15.5908 6 16.0359 6 16.5V25.25C6 25.7141 6.18437 26.1592 6.51256 26.4874C6.84075 26.8156 7.28587 27 7.75 27H11.25C11.7141 27 12.1592 26.8156 12.4874 26.4874C12.8156 26.1592 13 25.7141 13 25.25V16.5C13 16.0359 12.8156 15.5908 12.4874 15.2626C12.1592 14.9344 11.7141 14.75 11.25 14.75Z" fill="#4A4A4A"/>
<path d="M25.25 16.5V25.25H16.5V16.5H25.25ZM25.25 14.75H16.5C16.0359 14.75 15.5908 14.9344 15.2626 15.2626C14.9344 15.5908 14.75 16.0359 14.75 16.5V25.25C14.75 25.7141 14.9344 26.1592 15.2626 26.4874C15.5908 26.8156 16.0359 27 16.5 27H25.25C25.7141 27 26.1592 26.8156 26.4874 26.4874C26.8156 26.1592 27 25.7141 27 25.25V16.5C27 16.0359 26.8156 15.5908 26.4874 15.2626C26.1592 14.9344 25.7141 14.75 25.25 14.75Z" fill="#4A4A4A"/>
</svg>
