<svg width="51" height="51" viewBox="0 0 51 51" fill="none" xmlns="http://www.w3.org/2000/svg">
<rect x="10.5" y="6" width="29.1414" height="38.0156" rx="1.5" fill="#EDECD8" stroke="#4A4A4A"/>
<path d="M25.1727 16.3632C26.2075 16.3632 27.1998 15.9521 27.9315 15.2204C28.6632 14.4887 29.0743 13.4964 29.0743 12.4616C29.0743 11.4269 28.6632 10.4345 27.9315 9.70281C27.1998 8.97113 26.2075 8.56006 25.1727 8.56006C24.138 8.56006 23.1456 8.97113 22.4139 9.70281C21.6822 10.4345 21.2712 11.4269 21.2712 12.4616C21.2712 13.4964 21.6822 14.4887 22.4139 15.2204C23.1456 15.9521 24.138 16.3632 25.1727 16.3632Z" fill="#C9A777" stroke="#4A4A4A" stroke-width="0.8" stroke-linecap="round" stroke-linejoin="round"/>
<path d="M23.9619 13.4615C23.9881 13.764 24.1315 14.0441 24.3616 14.2416C24.5916 14.4392 24.8898 14.5383 25.1919 14.5178C26.1841 14.5178 26.422 13.9465 26.422 13.4615C26.422 12.9765 26.0119 12.4628 25.1919 12.4628C24.3719 12.4628 23.9619 12.1381 23.9619 11.4764C23.9695 11.3241 24.0078 11.175 24.0744 11.038C24.141 10.901 24.2346 10.7789 24.3495 10.6791C24.4644 10.5793 24.5983 10.5038 24.7431 10.4571C24.8878 10.4105 25.0405 10.3937 25.1919 10.4078C25.4943 10.3947 25.7902 10.4982 26.0189 10.6969C26.2477 10.8956 26.3919 11.1745 26.422 11.4764M25.1919 15.1331V14.5988M25.1919 9.79004V10.4061" stroke="#4A4A4A" stroke-width="0.8" stroke-linecap="round" stroke-linejoin="round"/>
<rect x="15.4131" y="20.9395" width="4.69631" height="4.21743" rx="0.5" fill="#5BB3A7" stroke="#4A4A4A"/>
<rect x="22.7455" y="21.2222" width="11.8199" height="1.04349" rx="0.521743" fill="#4A4A4A"/>
<rect x="22.7455" y="23.7002" width="11.8199" height="1.04349" rx="0.521743" fill="#4A4A4A"/>
<rect x="15.4131" y="28.157" width="4.69631" height="4.21743" rx="0.5" fill="#D7C19A" stroke="#4A4A4A"/>
<rect x="22.7455" y="28.4397" width="11.8199" height="1.04349" rx="0.521743" fill="#4A4A4A"/>
<rect x="22.7455" y="30.918" width="11.8199" height="1.04349" rx="0.521743" fill="#4A4A4A"/>
<rect x="15.4131" y="35.3743" width="4.69631" height="4.21743" rx="0.5" fill="#5BB3A7" stroke="#4A4A4A"/>
<rect x="22.7455" y="35.6567" width="11.8199" height="1.04349" rx="0.521743" fill="#4A4A4A"/>
<rect x="22.7455" y="38.135" width="11.8199" height="1.04349" rx="0.521743" fill="#4A4A4A"/>
</svg>
