<svg width="51" height="51" viewBox="0 0 51 51" fill="none" xmlns="http://www.w3.org/2000/svg">
<path d="M47.8406 11.9692H36.6368C35.5322 11.9692 34.6368 12.8647 34.6368 13.9692V36.143C34.6368 37.2476 35.5322 38.143 36.6368 38.143H47.8406C48.9452 38.143 49.8406 37.2476 49.8406 36.143V13.9692C49.8406 12.8647 48.9452 11.9692 47.8406 11.9692Z" fill="#EDECD8" stroke="#6E6E6E"/>
<path d="M42.1503 23.8842C43.341 23.8842 44.483 23.4112 45.325 22.5692C46.1669 21.7272 46.6399 20.5853 46.6399 19.3945C46.6399 18.2037 46.1669 17.0618 45.325 16.2198C44.483 15.3778 43.341 14.9048 42.1503 14.9048C40.9595 14.9048 39.8176 15.3778 38.9756 16.2198C38.1336 17.0618 37.6606 18.2037 37.6606 19.3945C37.6606 20.5853 38.1336 21.7272 38.9756 22.5692C39.8176 23.4112 40.9595 23.8842 42.1503 23.8842Z" fill="#D4B992" stroke="#6E6E6E" stroke-linecap="round" stroke-linejoin="round"/>
<path d="M40.7569 20.5447C40.787 20.8928 40.9522 21.2151 41.2168 21.4424C41.4815 21.6698 41.8246 21.7838 42.1724 21.7603C43.3142 21.7603 43.5879 21.1028 43.5879 20.5447C43.5879 19.9867 43.1161 19.3954 42.1724 19.3954C41.2287 19.3954 40.7569 19.0218 40.7569 18.2604C40.7657 18.0852 40.8097 17.9136 40.8864 17.7559C40.9631 17.5983 41.0708 17.4578 41.203 17.3429C41.3352 17.228 41.4892 17.1411 41.6558 17.0875C41.8224 17.0338 41.9981 17.0145 42.1724 17.0307C42.5203 17.0156 42.8609 17.1346 43.124 17.3633C43.3873 17.592 43.5532 17.9129 43.5879 18.2604M42.1724 22.4683V21.8534M42.1724 16.3198V17.0288" stroke="#6E6E6E" stroke-linecap="round" stroke-linejoin="round"/>
<mask id="path-4-inside-1_1420_222" fill="white">
<path d="M49.7806 29.8994H34.343V30.4744H49.7806V29.8994Z"/>
</mask>
<path d="M49.7806 29.8994H34.343V30.4744H49.7806V29.8994Z" fill="#6E6E6E"/>
<path d="M34.343 29.8994V28.8994H33.343V29.8994H34.343ZM49.7806 29.8994H50.7806V28.8994H49.7806V29.8994ZM49.7806 30.4744V31.4744H50.7806V30.4744H49.7806ZM34.343 30.4744H33.343V31.4744H34.343V30.4744ZM34.343 30.8994H49.7806V28.8994H34.343V30.8994ZM48.7806 29.8994V30.4744H50.7806V29.8994H48.7806ZM49.7806 29.4744H34.343V31.4744H49.7806V29.4744ZM35.343 30.4744V29.8994H33.343V30.4744H35.343Z" fill="#6E6E6E" mask="url(#path-4-inside-1_1420_222)"/>
<mask id="path-6-inside-2_1420_222" fill="white">
<path d="M44.8042 26.936H39.6731C39.5143 26.936 39.3856 27.0648 39.3856 27.2236C39.3856 27.3823 39.5143 27.5111 39.6731 27.5111H44.8042C44.963 27.5111 45.0917 27.3823 45.0917 27.2236C45.0917 27.0648 44.963 26.936 44.8042 26.936Z"/>
</mask>
<path d="M44.8042 26.936H39.6731C39.5143 26.936 39.3856 27.0648 39.3856 27.2236C39.3856 27.3823 39.5143 27.5111 39.6731 27.5111H44.8042C44.963 27.5111 45.0917 27.3823 45.0917 27.2236C45.0917 27.0648 44.963 26.936 44.8042 26.936Z" fill="#6E6E6E"/>
<path d="M39.6731 27.936H44.8042V25.936H39.6731V27.936ZM44.8042 27.936C44.4107 27.936 44.0917 27.617 44.0917 27.2236H46.0917C46.0917 26.5125 45.5153 25.936 44.8042 25.936V27.936ZM44.0917 27.2236C44.0917 26.8301 44.4107 26.5111 44.8042 26.5111V28.5111C45.5153 28.5111 46.0917 27.9346 46.0917 27.2236H44.0917ZM44.8042 26.5111H39.6731V28.5111H44.8042V26.5111ZM39.6731 26.5111C40.0666 26.5111 40.3856 26.8301 40.3856 27.2236H38.3856C38.3856 27.9346 38.9621 28.5111 39.6731 28.5111V26.5111ZM40.3856 27.2236C40.3856 27.617 40.0666 27.936 39.6731 27.936V25.936C38.962 25.936 38.3856 26.5125 38.3856 27.2236H40.3856Z" fill="#6E6E6E" mask="url(#path-6-inside-2_1420_222)"/>
<mask id="path-8-inside-3_1420_222" fill="white">
<path d="M46.1313 25.4319H38.3462C38.1874 25.4319 38.0587 25.5606 38.0587 25.7194C38.0587 25.8782 38.1874 26.0069 38.3462 26.0069H46.1313C46.2901 26.0069 46.4188 25.8782 46.4188 25.7194C46.4188 25.5606 46.2901 25.4319 46.1313 25.4319Z"/>
</mask>
<path d="M46.1313 25.4319H38.3462C38.1874 25.4319 38.0587 25.5606 38.0587 25.7194C38.0587 25.8782 38.1874 26.0069 38.3462 26.0069H46.1313C46.2901 26.0069 46.4188 25.8782 46.4188 25.7194C46.4188 25.5606 46.2901 25.4319 46.1313 25.4319Z" fill="#6E6E6E"/>
<path d="M38.3462 26.4319H46.1313V24.4319H38.3462V26.4319ZM46.1313 26.4319C45.7379 26.4319 45.4188 26.1129 45.4188 25.7194H47.4188C47.4188 25.0083 46.8424 24.4319 46.1313 24.4319V26.4319ZM45.4188 25.7194C45.4188 25.3259 45.7378 25.0069 46.1313 25.0069V27.0069C46.8424 27.0069 47.4188 26.4305 47.4188 25.7194H45.4188ZM46.1313 25.0069H38.3462V27.0069H46.1313V25.0069ZM38.3462 25.0069C38.7397 25.0069 39.0587 25.3259 39.0587 25.7194H37.0587C37.0587 26.4305 37.6351 27.0069 38.3462 27.0069V25.0069ZM39.0587 25.7194C39.0587 26.1129 38.7397 26.4319 38.3462 26.4319V24.4319C37.6351 24.4319 37.0587 25.0083 37.0587 25.7194H39.0587Z" fill="#6E6E6E" mask="url(#path-8-inside-3_1420_222)"/>
<path d="M44.7158 33.2454H39.8059C39.2475 33.2454 38.7948 33.6981 38.7948 34.2565C38.7948 34.8149 39.2475 35.2676 39.8059 35.2676H44.7158C45.2743 35.2676 45.7269 34.8149 45.7269 34.2565C45.7269 33.6981 45.2743 33.2454 44.7158 33.2454Z" fill="#5BB3A7" stroke="#6E6E6E"/>
<path d="M14.4976 11.9106H3.29376C2.18919 11.9106 1.29376 12.8061 1.29376 13.9106V36.0844C1.29376 37.189 2.18919 38.0844 3.29376 38.0844H14.4976C15.6022 38.0844 16.4976 37.189 16.4976 36.0844V13.9106C16.4976 12.8061 15.6022 11.9106 14.4976 11.9106Z" fill="#F1F0E0" stroke="#6E6E6E"/>
<path d="M8.80726 23.8256C9.99796 23.8256 11.14 23.3526 11.982 22.5106C12.8239 21.6686 13.2969 20.5267 13.2969 19.3359C13.2969 18.1452 12.8239 17.0032 11.982 16.1612C11.14 15.3192 9.99796 14.8462 8.80726 14.8462C7.6165 14.8462 6.47454 15.3192 5.63256 16.1612C4.79057 17.0032 4.31754 18.1452 4.31754 19.3359C4.31754 20.5267 4.79057 21.6686 5.63256 22.5106C6.47454 23.3526 7.6165 23.8256 8.80726 23.8256Z" fill="#C9A777" stroke="#6E6E6E" stroke-linecap="round" stroke-linejoin="round"/>
<path d="M7.41388 20.4864C7.44393 20.8345 7.60912 21.1568 7.8738 21.3841C8.13849 21.6114 8.48156 21.7255 8.82934 21.7019C9.97112 21.7019 10.2448 21.0445 10.2448 20.4864C10.2448 19.9283 9.773 19.3371 8.82934 19.3371C7.88568 19.3371 7.41388 18.9634 7.41388 18.202C7.42264 18.0268 7.46669 17.8552 7.54337 17.6976C7.62005 17.5399 7.72773 17.3994 7.85992 17.2845C7.99218 17.1697 8.14619 17.0828 8.31279 17.0291C8.47939 16.9754 8.6551 16.9562 8.82934 16.9723C9.1773 16.9573 9.51784 17.0763 9.781 17.305C10.0442 17.5336 10.2102 17.8546 10.2448 18.202M8.82934 22.4099V21.7951M8.82934 16.2615V16.9704" stroke="#6E6E6E" stroke-linecap="round" stroke-linejoin="round"/>
<mask id="path-14-inside-4_1420_222" fill="white">
<path d="M16.4375 29.8411H1V30.4161H16.4375V29.8411Z"/>
</mask>
<path d="M16.4375 29.8411H1V30.4161H16.4375V29.8411Z" fill="#6E6E6E"/>
<path d="M1 29.8411V28.8411H0V29.8411H1ZM16.4375 29.8411H17.4375V28.8411H16.4375V29.8411ZM16.4375 30.4161V31.4161H17.4375V30.4161H16.4375ZM1 30.4161H0V31.4161H1V30.4161ZM1 30.8411H16.4375V28.8411H1V30.8411ZM15.4375 29.8411V30.4161H17.4375V29.8411H15.4375ZM16.4375 29.4161H1V31.4161H16.4375V29.4161ZM2 30.4161V29.8411H0V30.4161H2Z" fill="#6E6E6E" mask="url(#path-14-inside-4_1420_222)"/>
<mask id="path-16-inside-5_1420_222" fill="white">
<path d="M11.4612 26.8777H6.33012C6.17133 26.8777 6.0426 27.0064 6.0426 27.1652C6.0426 27.324 6.17133 27.4527 6.33012 27.4527H11.4612C11.62 27.4527 11.7487 27.324 11.7487 27.1652C11.7487 27.0064 11.62 26.8777 11.4612 26.8777Z"/>
</mask>
<path d="M11.4612 26.8777H6.33012C6.17133 26.8777 6.0426 27.0064 6.0426 27.1652C6.0426 27.324 6.17133 27.4527 6.33012 27.4527H11.4612C11.62 27.4527 11.7487 27.324 11.7487 27.1652C11.7487 27.0064 11.62 26.8777 11.4612 26.8777Z" fill="#6E6E6E"/>
<path d="M6.33012 27.8777H11.4612V25.8777H6.33012V27.8777ZM11.4612 27.8777C11.0677 27.8777 10.7487 27.5587 10.7487 27.1652H12.7487C12.7487 26.4541 12.1723 25.8777 11.4612 25.8777V27.8777ZM10.7487 27.1652C10.7487 26.7717 11.0677 26.4527 11.4612 26.4527V28.4527C12.1723 28.4527 12.7487 27.8763 12.7487 27.1652H10.7487ZM11.4612 26.4527H6.33012V28.4527H11.4612V26.4527ZM6.33012 26.4527C6.7236 26.4527 7.0426 26.7717 7.0426 27.1652H5.0426C5.0426 27.8763 5.61906 28.4527 6.33012 28.4527V26.4527ZM7.0426 27.1652C7.0426 27.5587 6.72362 27.8777 6.33012 27.8777V25.8777C5.61904 25.8777 5.0426 26.4541 5.0426 27.1652H7.0426Z" fill="#6E6E6E" mask="url(#path-16-inside-5_1420_222)"/>
<mask id="path-18-inside-6_1420_222" fill="white">
<path d="M12.7883 25.3738H5.00316C4.84436 25.3738 4.71564 25.5025 4.71564 25.6613C4.71564 25.8201 4.84436 25.9488 5.00316 25.9488H12.7883C12.9471 25.9488 13.0758 25.8201 13.0758 25.6613C13.0758 25.5025 12.9471 25.3738 12.7883 25.3738Z"/>
</mask>
<path d="M12.7883 25.3738H5.00316C4.84436 25.3738 4.71564 25.5025 4.71564 25.6613C4.71564 25.8201 4.84436 25.9488 5.00316 25.9488H12.7883C12.9471 25.9488 13.0758 25.8201 13.0758 25.6613C13.0758 25.5025 12.9471 25.3738 12.7883 25.3738Z" fill="#6E6E6E"/>
<path d="M5.00316 26.3738H12.7883V24.3738H5.00316V26.3738ZM12.7883 26.3738C12.3948 26.3738 12.0758 26.0548 12.0758 25.6613H14.0758C14.0758 24.9502 13.4994 24.3738 12.7883 24.3738V26.3738ZM12.0758 25.6613C12.0758 25.2678 12.3948 24.9488 12.7883 24.9488V26.9488C13.4994 26.9488 14.0758 26.3724 14.0758 25.6613H12.0758ZM12.7883 24.9488H5.00316V26.9488H12.7883V24.9488ZM5.00316 24.9488C5.39664 24.9488 5.71564 25.2678 5.71564 25.6613H3.71564C3.71564 26.3724 4.29208 26.9488 5.00316 26.9488V24.9488ZM5.71564 25.6613C5.71564 26.0548 5.39664 26.3738 5.00316 26.3738V24.3738C4.29208 24.3738 3.71564 24.9502 3.71564 25.6613H5.71564Z" fill="#6E6E6E" mask="url(#path-18-inside-6_1420_222)"/>
<path d="M11.3728 33.187H6.46284C5.90441 33.187 5.45172 33.6397 5.45172 34.1981C5.45172 34.7566 5.90441 35.2092 6.46284 35.2092H11.3728C11.9312 35.2092 12.3839 34.7566 12.3839 34.1981C12.3839 33.6397 11.9312 33.187 11.3728 33.187Z" fill="#5BB3A7" stroke="#6E6E6E"/>
<path d="M33.9305 7.5H17.466C16.3615 7.5 15.466 8.39543 15.466 9.5V40.5484C15.466 41.653 16.3615 42.5484 17.466 42.5484H33.9305C35.0351 42.5484 35.9305 41.653 35.9305 40.5484V9.5C35.9305 8.39543 35.0351 7.5 33.9305 7.5Z" fill="#EDECD8" stroke="#4A4A4A"/>
<path d="M25.5807 23.466C27.1637 23.466 28.6819 22.8371 29.8013 21.7177C30.9206 20.5983 31.5495 19.0801 31.5495 17.4971C31.5495 15.9141 30.9206 14.3959 29.8013 13.2766C28.6819 12.1572 27.1637 11.5283 25.5807 11.5283C23.9977 11.5283 22.4795 12.1572 21.3601 13.2766C20.2407 14.3959 19.6119 15.9141 19.6119 17.4971C19.6119 19.0801 20.2407 20.5983 21.3601 21.7177C22.4795 22.8371 23.9977 23.466 25.5807 23.466Z" fill="#C9A777" stroke="#4A4A4A" stroke-linecap="round" stroke-linejoin="round"/>
<path d="M23.7283 19.027C23.7683 19.4897 23.9879 19.9182 24.3398 20.2204C24.6917 20.5226 25.1478 20.6743 25.6101 20.6429C27.1281 20.6429 27.4919 19.7689 27.4919 19.027C27.4919 18.285 26.8646 17.4991 25.6101 17.4991C24.3556 17.4991 23.7283 17.0023 23.7283 15.99C23.74 15.7571 23.7986 15.529 23.9005 15.3194C24.0024 15.1098 24.1456 14.923 24.3214 14.7703C24.4971 14.6176 24.702 14.5021 24.9234 14.4307C25.1449 14.3594 25.3785 14.3337 25.6101 14.3552C26.0727 14.3352 26.5254 14.4935 26.8753 14.7975C27.2253 15.1015 27.4458 15.5282 27.4919 15.99M25.6101 21.5842V20.7668M25.6101 13.4102V14.3527" stroke="#4A4A4A" stroke-linecap="round" stroke-linejoin="round"/>
<mask id="path-24-inside-7_1420_222" fill="white">
<path d="M35.7247 31.4636H15.2014V32.2281H35.7247V31.4636Z"/>
</mask>
<path d="M35.7247 31.4636H15.2014V32.2281H35.7247V31.4636Z" fill="#4A4A4A"/>
<path d="M15.2014 31.4636V30.4636H14.2014V31.4636H15.2014ZM35.7247 31.4636H36.7247V30.4636H35.7247V31.4636ZM35.7247 32.2281V33.2281H36.7247V32.2281H35.7247ZM15.2014 32.2281H14.2014V33.2281H15.2014V32.2281ZM15.2014 32.4636H35.7247V30.4636H15.2014V32.4636ZM34.7247 31.4636V32.2281H36.7247V31.4636H34.7247ZM35.7247 31.2281H15.2014V33.2281H35.7247V31.2281ZM16.2014 32.2281V31.4636H14.2014V32.2281H16.2014Z" fill="#4A4A4A" mask="url(#path-24-inside-7_1420_222)"/>
<mask id="path-26-inside-8_1420_222" fill="white">
<path d="M29.109 27.5237H22.2875C22.0764 27.5237 21.9053 27.6948 21.9053 27.9059C21.9053 28.117 22.0764 28.2882 22.2875 28.2882H29.109C29.3201 28.2882 29.4913 28.117 29.4913 27.9059C29.4913 27.6948 29.3201 27.5237 29.109 27.5237Z"/>
</mask>
<path d="M29.109 27.5237H22.2875C22.0764 27.5237 21.9053 27.6948 21.9053 27.9059C21.9053 28.117 22.0764 28.2882 22.2875 28.2882H29.109C29.3201 28.2882 29.4913 28.117 29.4913 27.9059C29.4913 27.6948 29.3201 27.5237 29.109 27.5237Z" fill="#4A4A4A"/>
<path d="M22.2875 28.5237H29.109V26.5237H22.2875V28.5237ZM29.109 28.5237C28.7678 28.5237 28.4913 28.2471 28.4913 27.9059H30.4913C30.4913 27.1425 29.8724 26.5237 29.109 26.5237V28.5237ZM28.4913 27.9059C28.4913 27.5647 28.7678 27.2882 29.109 27.2882V29.2882C29.8724 29.2882 30.4913 28.6693 30.4913 27.9059H28.4913ZM29.109 27.2882H22.2875V29.2882H29.109V27.2882ZM22.2875 27.2882C22.6287 27.2882 22.9053 27.5647 22.9053 27.9059H20.9053C20.9053 28.6693 21.5241 29.2882 22.2875 29.2882V27.2882ZM22.9053 27.9059C22.9053 28.2471 22.6287 28.5237 22.2875 28.5237V26.5237C21.5241 26.5237 20.9053 27.1425 20.9053 27.9059H22.9053Z" fill="#4A4A4A" mask="url(#path-26-inside-8_1420_222)"/>
<mask id="path-28-inside-9_1420_222" fill="white">
<path d="M30.8732 25.5244H20.5234C20.3122 25.5244 20.1411 25.6955 20.1411 25.9067C20.1411 26.1178 20.3122 26.2889 20.5234 26.2889H30.8732C31.0843 26.2889 31.2555 26.1178 31.2555 25.9067C31.2555 25.6955 31.0843 25.5244 30.8732 25.5244Z"/>
</mask>
<path d="M30.8732 25.5244H20.5234C20.3122 25.5244 20.1411 25.6955 20.1411 25.9067C20.1411 26.1178 20.3122 26.2889 20.5234 26.2889H30.8732C31.0843 26.2889 31.2555 26.1178 31.2555 25.9067C31.2555 25.6955 31.0843 25.5244 30.8732 25.5244Z" fill="#4A4A4A"/>
<path d="M20.5234 26.5244H30.8732V24.5244H20.5234V26.5244ZM30.8732 26.5244C30.532 26.5244 30.2555 26.2478 30.2555 25.9067H32.2555C32.2555 25.1433 31.6366 24.5244 30.8732 24.5244V26.5244ZM30.2555 25.9067C30.2555 25.5655 30.532 25.2889 30.8732 25.2889V27.2889C31.6366 27.2889 32.2555 26.67 32.2555 25.9067H30.2555ZM30.8732 25.2889H20.5234V27.2889H30.8732V25.2889ZM20.5234 25.2889C20.8645 25.2889 21.1411 25.5655 21.1411 25.9067H19.1411C19.1411 26.67 19.76 27.2889 20.5234 27.2889V25.2889ZM21.1411 25.9067C21.1411 26.2478 20.8645 26.5244 20.5234 26.5244V24.5244C19.76 24.5244 19.1411 25.1433 19.1411 25.9067H21.1411Z" fill="#4A4A4A" mask="url(#path-28-inside-9_1420_222)"/>
<path d="M28.9914 35.7859H22.464C21.652 35.7859 20.9938 36.4441 20.9938 37.256C20.9938 38.068 21.652 38.7262 22.464 38.7262H28.9914C29.8034 38.7262 30.4616 38.068 30.4616 37.256C30.4616 36.4441 29.8034 35.7859 28.9914 35.7859Z" fill="#5BB3A7" stroke="#4A4A4A"/>
</svg>
