<svg width="33" height="33" viewBox="0 0 33 33" fill="none" xmlns="http://www.w3.org/2000/svg">
<g clip-path="url(#clip0_1420_343)">
<path d="M14.75 19.125V20.875C14.75 21.1071 14.6578 21.3296 14.4937 21.4937C14.3296 21.6578 14.1071 21.75 13.875 21.75H12.125C11.8929 21.75 11.6704 21.6578 11.5063 21.4937C11.3422 21.3296 11.25 21.1071 11.25 20.875V19.125C11.25 18.8929 11.3422 18.6704 11.5063 18.5063C11.6704 18.3422 11.8929 18.25 12.125 18.25H13.875C14.1071 18.25 14.3296 18.3422 14.4937 18.5063C14.6578 18.6704 14.75 18.8929 14.75 19.125ZM20.875 11.25H19.125C18.8929 11.25 18.6704 11.3422 18.5063 11.5063C18.3422 11.6704 18.25 11.8929 18.25 12.125V13.875C18.25 14.1071 18.3422 14.3296 18.5063 14.4937C18.6704 14.6578 18.8929 14.75 19.125 14.75H20.875C21.1071 14.75 21.3296 14.6578 21.4937 14.4937C21.6578 14.3296 21.75 14.1071 21.75 13.875V12.125C21.75 11.8929 21.6578 11.6704 21.4937 11.5063C21.3296 11.3422 21.1071 11.25 20.875 11.25ZM20.875 16.5H17.375C17.1429 16.5 16.9204 16.5922 16.7563 16.7563C16.5922 16.9204 16.5 17.1429 16.5 17.375V20.875C16.5 21.1071 16.5922 21.3296 16.7563 21.4937C16.9204 21.6578 17.1429 21.75 17.375 21.75H20.875C21.1071 21.75 21.3296 21.6578 21.4937 21.4937C21.6578 21.3296 21.75 21.1071 21.75 20.875V17.375C21.75 17.1429 21.6578 16.9204 21.4937 16.7563C21.3296 16.5922 21.1071 16.5 20.875 16.5ZM16.5 12.125C16.5 11.8929 16.4078 11.6704 16.2437 11.5063C16.0796 11.3422 15.8571 11.25 15.625 11.25H12.125C11.8929 11.25 11.6704 11.3422 11.5063 11.5063C11.3422 11.6704 11.25 11.8929 11.25 12.125V15.625C11.25 15.8571 11.3422 16.0796 11.5063 16.2437C11.6704 16.4078 11.8929 16.5 12.125 16.5H15.625C15.8571 16.5 16.0796 16.4078 16.2437 16.2437C16.4078 16.0796 16.5 15.8571 16.5 15.625V12.125Z" fill="#C9A777"/>
<path d="M8.625 13.875C8.39294 13.875 8.17038 13.7828 8.00628 13.6187C7.84219 13.4546 7.75 13.2321 7.75 13V9.5C7.75 9.03587 7.93437 8.59075 8.26256 8.26256C8.59075 7.93437 9.03587 7.75 9.5 7.75H13C13.2321 7.75 13.4546 7.84219 13.6187 8.00628C13.7828 8.17038 13.875 8.39294 13.875 8.625C13.875 8.85706 13.7828 9.07962 13.6187 9.24372C13.4546 9.40781 13.2321 9.5 13 9.5H9.5V13C9.5 13.2321 9.40781 13.4546 9.24372 13.6187C9.07962 13.7828 8.85706 13.875 8.625 13.875ZM25.25 13V9.5C25.25 9.03587 25.0656 8.59075 24.7374 8.26256C24.4092 7.93437 23.9641 7.75 23.5 7.75H20C19.7679 7.75 19.5454 7.84219 19.3813 8.00628C19.2172 8.17038 19.125 8.39294 19.125 8.625C19.125 8.85706 19.2172 9.07962 19.3813 9.24372C19.5454 9.40781 19.7679 9.5 20 9.5H23.5V13C23.5 13.2321 23.5922 13.4546 23.7563 13.6187C23.9204 13.7828 24.1429 13.875 24.375 13.875C24.6071 13.875 24.8296 13.7828 24.9937 13.6187C25.1578 13.4546 25.25 13.2321 25.25 13ZM13.875 24.375C13.875 24.1429 13.7828 23.9204 13.6187 23.7563C13.4546 23.5922 13.2321 23.5 13 23.5H9.5V20C9.5 19.7679 9.40781 19.5454 9.24372 19.3813C9.07962 19.2172 8.85706 19.125 8.625 19.125C8.39294 19.125 8.17038 19.2172 8.00628 19.3813C7.84219 19.5454 7.75 19.7679 7.75 20V23.5C7.75 23.9641 7.93437 24.4092 8.26256 24.7374C8.59075 25.0656 9.03587 25.25 9.5 25.25H13C13.2321 25.25 13.4546 25.1578 13.6187 24.9937C13.7828 24.8296 13.875 24.6071 13.875 24.375ZM25.25 23.5V20C25.25 19.7679 25.1578 19.5454 24.9937 19.3813C24.8296 19.2172 24.6071 19.125 24.375 19.125C24.1429 19.125 23.9204 19.2172 23.7563 19.3813C23.5922 19.5454 23.5 19.7679 23.5 20V23.5H20C19.7679 23.5 19.5454 23.5922 19.3813 23.7563C19.2172 23.9204 19.125 24.1429 19.125 24.375C19.125 24.6071 19.2172 24.8296 19.3813 24.9937C19.5454 25.1578 19.7679 25.25 20 25.25H23.5C23.9641 25.25 24.4092 25.0656 24.7374 24.7374C25.0656 24.4092 25.25 23.9641 25.25 23.5Z" fill="#4A4A4A"/>
</g>
<defs>
<clipPath id="clip0_1420_343">
<rect width="21" height="21" fill="white" transform="translate(6 6)"/>
</clipPath>
</defs>
</svg>
