<svg width="34" height="34" viewBox="0 0 34 34" fill="none" xmlns="http://www.w3.org/2000/svg">
<path d="M26.2503 16.0019L26.2492 16.022V16.0421C26.2492 16.5394 26.0517 17.0163 25.7 17.3679C25.3484 17.7195 24.8715 17.917 24.3743 17.917C23.877 17.917 23.4001 17.7195 23.0485 17.3679C22.6969 17.0163 22.4994 16.5394 22.4994 16.0421H21.7494H20.9994C20.9994 16.5394 20.8019 17.0163 20.4502 17.3679C20.0986 17.7195 19.6217 17.917 19.1245 17.917C18.6272 17.917 18.1504 17.7195 17.7987 17.3679C17.4471 17.0163 17.2496 16.5394 17.2496 16.0421H16.4996H15.7496C15.7496 16.5394 15.5521 17.0163 15.2004 17.3679C14.8488 17.7195 14.372 17.917 13.8747 17.917C13.3774 17.917 12.9006 17.7195 12.5489 17.3679C12.1973 17.0163 11.9998 16.5394 11.9998 16.0421H11.2498H10.4998C10.4998 16.5394 10.3023 17.0163 9.95065 17.3679C9.59904 17.7195 9.12215 17.917 8.6249 17.917C8.12765 17.917 7.65076 17.7195 7.29915 17.3679C6.94754 17.0163 6.75 16.5394 6.75 16.0421L6.75 16.0415C6.74958 15.5326 6.82192 15.0262 6.96482 14.5378L6.96484 14.5378L6.96633 14.5325L8.80959 8.05778L8.8096 8.05779L8.81054 8.05442C8.83574 7.9643 8.89055 7.88529 8.96613 7.83012C9.0417 7.77495 9.13365 7.74683 9.22716 7.75028L9.24102 7.7508H9.25488H23.8376H23.8515L23.8654 7.75028C23.9589 7.74683 24.0508 7.77495 24.1264 7.83012C24.202 7.8853 24.2568 7.96431 24.282 8.05442L24.2829 8.05778L26.1212 14.5149C26.2336 15.0021 26.2771 15.5026 26.2503 16.0019Z" fill="#D7C19A" stroke="#4A4A4A" stroke-width="1.5"/>
<path d="M24.6659 18.667V26.8333C24.6659 27.1427 24.543 27.4395 24.3242 27.6583C24.1055 27.8771 23.8087 28 23.4993 28H9.49986C9.19045 28 8.89372 27.8771 8.67493 27.6583C8.45615 27.4395 8.33324 27.1427 8.33324 26.8333V18.667" fill="#EDECD8"/>
<path d="M24.6659 18.667V26.8333C24.6659 27.1427 24.543 27.4395 24.3242 27.6583C24.1055 27.8771 23.8087 28 23.4993 28H9.49986C9.19045 28 8.89372 27.8771 8.67493 27.6583C8.45615 27.4395 8.33324 27.1427 8.33324 26.8333V18.667" stroke="#4A4A4A" stroke-width="1.5" stroke-linecap="round" stroke-linejoin="round"/>
<path d="M16.4996 7.0008H23.791C24.0528 6.99112 24.3103 7.06986 24.5219 7.22436C24.7336 7.37885 24.887 7.60009 24.9576 7.85243L26.8009 14.3272C26.9481 14.8865 27.0148 15.464 26.9992 16.0421C26.9992 16.7383 26.7226 17.4059 26.2304 17.8982C25.7381 18.3905 25.0704 18.667 24.3743 18.667C23.6781 18.667 23.0105 18.3905 22.5182 17.8982C22.0259 17.4059 21.7494 16.7383 21.7494 16.0421C21.7494 16.7383 21.4728 17.4059 20.9806 17.8982C20.4883 18.3905 19.8207 18.667 19.1245 18.667C18.4283 18.667 17.7607 18.3905 17.2684 17.8982C16.7761 17.4059 16.4996 16.7383 16.4996 16.0421" fill="#D7C19A"/>
<path d="M16.4996 7.0008H23.791C24.0528 6.99112 24.3103 7.06986 24.5219 7.22436C24.7336 7.37885 24.887 7.60009 24.9576 7.85243L26.8009 14.3272C26.9481 14.8865 27.0148 15.464 26.9992 16.0421C26.9992 16.7383 26.7226 17.4059 26.2304 17.8982C25.7381 18.3905 25.0704 18.667 24.3743 18.667C23.6781 18.667 23.0105 18.3905 22.5182 17.8982C22.0259 17.4059 21.7494 16.7383 21.7494 16.0421C21.7494 16.7383 21.4728 17.4059 20.9806 17.8982C20.4883 18.3905 19.8207 18.667 19.1245 18.667C18.4283 18.667 17.7607 18.3905 17.2684 17.8982C16.7761 17.4059 16.4996 16.7383 16.4996 16.0421" stroke="#4A4A4A" stroke-width="1.5" stroke-linecap="round" stroke-linejoin="round"/>
<path d="M16.4996 7.0008H9.20821C8.94637 6.99112 8.68889 7.06986 8.47725 7.22436C8.26562 7.37885 8.11216 7.60009 8.04159 7.85243L6.24499 14.3272C6.08202 14.8842 5.99953 15.4617 6 16.0421C6 16.7383 6.27655 17.4059 6.76882 17.8982C7.26108 18.3905 7.92873 18.667 8.6249 18.667C9.32107 18.667 9.98872 18.3905 10.481 17.8982C10.9732 17.4059 11.2498 16.7383 11.2498 16.0421C11.2498 16.7383 11.5263 17.4059 12.0186 17.8982C12.5109 18.3905 13.1785 18.667 13.8747 18.667C14.5709 18.667 15.2385 18.3905 15.7308 17.8982C16.223 17.4059 16.4996 16.7383 16.4996 16.0421" fill="#D7C19A"/>
<path d="M16.4996 7.0008H9.20821C8.94637 6.99112 8.68889 7.06986 8.47725 7.22436C8.26562 7.37885 8.11216 7.60009 8.04159 7.85243L6.24499 14.3272C6.08202 14.8842 5.99953 15.4617 6 16.0421C6 16.7383 6.27655 17.4059 6.76882 17.8982C7.26108 18.3905 7.92873 18.667 8.6249 18.667C9.32107 18.667 9.98872 18.3905 10.481 17.8982C10.9732 17.4059 11.2498 16.7383 11.2498 16.0421C11.2498 16.7383 11.5263 17.4059 12.0186 17.8982C12.5109 18.3905 13.1785 18.667 13.8747 18.667C14.5709 18.667 15.2385 18.3905 15.7308 17.8982C16.223 17.4059 16.4996 16.7383 16.4996 16.0421" stroke="#4A4A4A" stroke-width="1.5" stroke-linecap="round" stroke-linejoin="round"/>
</svg>
