<svg width="33" height="33" viewBox="0 0 33 33" fill="none" xmlns="http://www.w3.org/2000/svg">
<path d="M19.0844 19.0776L24.375 24.375ZM20.875 14.75C20.875 18.1327 18.1327 20.875 14.75 20.875C11.3673 20.875 8.625 18.1327 8.625 14.75C8.625 11.3673 11.3673 8.625 14.75 8.625C18.1327 8.625 20.875 11.3673 20.875 14.75Z" fill="#EDECD8"/>
<path d="M19.0844 19.0776L24.375 24.375M20.875 14.75C20.875 18.1327 18.1327 20.875 14.75 20.875C11.3673 20.875 8.625 18.1327 8.625 14.75C8.625 11.3673 11.3673 8.625 14.75 8.625C18.1327 8.625 20.875 11.3673 20.875 14.75Z" stroke="#4A4A4A" stroke-width="1.5" stroke-linecap="round" stroke-linejoin="round"/>
</svg>
