<svg width="21" height="21" viewBox="0 0 21 21" fill="none" xmlns="http://www.w3.org/2000/svg">
<path d="M16 2.69995H5C3.89543 2.69995 3 3.59538 3 4.69995V16.3C3 17.4045 3.89543 18.3 5 18.3H16C17.1046 18.3 18 17.4045 18 16.3V4.69995C18 3.59538 17.1046 2.69995 16 2.69995Z" fill="#EDECD8"/>
<path d="M4.375 2.625H6.125V4.375H4.375V8.75C4.375 9.21413 4.19063 9.65925 3.86244 9.98744C3.53425 10.3156 3.08913 10.5 2.625 10.5C3.08913 10.5 3.53425 10.6844 3.86244 11.0126C4.19063 11.3408 4.375 11.7859 4.375 12.25V16.625H6.125V18.375H4.375C3.43875 18.1387 2.625 17.5875 2.625 16.625V13.125C2.625 12.6609 2.44063 12.2158 2.11244 11.8876C1.78425 11.5594 1.33913 11.375 0.875 11.375H0V9.625H0.875C1.33913 9.625 1.78425 9.44063 2.11244 9.11244C2.44063 8.78425 2.625 8.33913 2.625 7.875V4.375C2.625 3.91087 2.80937 3.46575 3.13756 3.13756C3.46575 2.80937 3.91087 2.625 4.375 2.625ZM16.625 2.625C17.0891 2.625 17.5342 2.80937 17.8624 3.13756C18.1906 3.46575 18.375 3.91087 18.375 4.375V7.875C18.375 8.33913 18.5594 8.78425 18.8876 9.11244C19.2158 9.44063 19.6609 9.625 20.125 9.625H21V11.375H20.125C19.6609 11.375 19.2158 11.5594 18.8876 11.8876C18.5594 12.2158 18.375 12.6609 18.375 13.125V16.625C18.375 17.0891 18.1906 17.5342 17.8624 17.8624C17.5342 18.1906 17.0891 18.375 16.625 18.375H14.875V16.625H16.625V12.25C16.625 11.7859 16.8094 11.3408 17.1376 11.0126C17.4658 10.6844 17.9109 10.5 18.375 10.5C17.9109 10.5 17.4658 10.3156 17.1376 9.98744C16.8094 9.65925 16.625 9.21413 16.625 8.75V4.375H14.875V2.625H16.625ZM10.5 13.125C10.6731 13.125 10.8422 13.1763 10.9861 13.2725C11.13 13.3686 11.2422 13.5053 11.3084 13.6652C11.3746 13.825 11.3919 14.001 11.3582 14.1707C11.3244 14.3404 11.2411 14.4963 11.1187 14.6187C10.9963 14.7411 10.8404 14.8244 10.6707 14.8582C10.501 14.8919 10.325 14.8746 10.1652 14.8084C10.0053 14.7422 9.86861 14.63 9.77246 14.4861C9.67632 14.3422 9.625 14.1731 9.625 14C9.625 13.7679 9.71719 13.5454 9.88128 13.3813C10.0454 13.2172 10.2679 13.125 10.5 13.125ZM7 13.125C7.17306 13.125 7.34223 13.1763 7.48612 13.2725C7.63002 13.3686 7.74217 13.5053 7.80839 13.6652C7.87462 13.825 7.89195 14.001 7.85819 14.1707C7.82443 14.3404 7.74109 14.4963 7.61872 14.6187C7.49635 14.7411 7.34044 14.8244 7.1707 14.8582C7.00097 14.8919 6.82504 14.8746 6.66515 14.8084C6.50527 14.7422 6.36861 14.63 6.27246 14.4861C6.17632 14.3422 6.125 14.1731 6.125 14C6.125 13.7679 6.21719 13.5454 6.38128 13.3813C6.54538 13.2172 6.76794 13.125 7 13.125ZM14 13.125C14.1731 13.125 14.3422 13.1763 14.4861 13.2725C14.63 13.3686 14.7422 13.5053 14.8084 13.6652C14.8746 13.825 14.8919 14.001 14.8582 14.1707C14.8244 14.3404 14.7411 14.4963 14.6187 14.6187C14.4963 14.7411 14.3404 14.8244 14.1707 14.8582C14.001 14.8919 13.825 14.8746 13.6652 14.8084C13.5053 14.7422 13.3686 14.63 13.2725 14.4861C13.1763 14.3422 13.125 14.1731 13.125 14C13.125 13.7679 13.2172 13.5454 13.3813 13.3813C13.5454 13.2172 13.7679 13.125 14 13.125Z" fill="#4A4A4A"/>
</svg>
