<svg width="33" height="33" viewBox="0 0 33 33" fill="none" xmlns="http://www.w3.org/2000/svg">
<rect x="9" y="15" width="16" height="11" fill="#EDECD8"/>
<path d="M8 26.2499C8 26.6642 8.33562 26.9999 8.75 26.9999H25.1048C25.5192 26.9999 25.8548 26.6642 25.8548 26.2499L25.8557 14.2986C25.8557 13.8842 25.5201 13.5486 25.1057 13.5486H8.75022C8.33583 13.5486 8.00022 13.8842 8.00022 14.2986L8 26.2499ZM9.5 15.0486H24.3548L24.3557 25.4999H9.50022L9.5 15.0486Z" fill="#4A4A4A"/>
<path d="M8 11.7825C8 12.1969 8.33562 12.5325 8.75 12.5325H25.1048C25.5192 12.5325 25.8548 12.1969 25.8548 11.7825C25.8548 11.3681 25.5192 11.0325 25.1048 11.0325H8.75C8.33655 11.0325 8 11.3681 8 11.7825Z" fill="#4A4A4A"/>
<path d="M9.25904 9.26611C9.25904 9.6805 9.59466 10.0161 10.009 10.0161H23.8474C24.2618 10.0161 24.5974 9.6805 24.5974 9.26611C24.5974 8.85173 24.2618 8.51611 23.8474 8.51611H10.009C9.59466 8.51611 9.25904 8.85079 9.25904 9.26611Z" fill="#4A4A4A"/>
<path d="M22.5894 7.5C23.0037 7.5 23.3394 7.16438 23.3394 6.75C23.3394 6.33562 23.0037 6 22.5894 6H11.2662C10.8518 6 10.5162 6.33562 10.5162 6.75C10.5162 7.16438 10.8518 7.5 11.2662 7.5H22.5894Z" fill="#4A4A4A"/>
</svg>
