<svg width="34" height="34" viewBox="0 0 34 34" fill="none" xmlns="http://www.w3.org/2000/svg">
<path d="M7.52677 19.3977C7.37338 18.7074 7.89862 18.0526 8.60571 18.0526H25.7448C26.4519 18.0526 26.9771 18.7074 26.8237 19.3977L25.1044 27.1345C24.992 27.6402 24.5435 28 24.0255 28H10.325C9.80695 28 9.35844 27.6402 9.24607 27.1345L7.52677 19.3977Z" fill="#EDECD8" stroke="#4A4A4A" stroke-width="1.5" stroke-linecap="round" stroke-linejoin="round"/>
<path d="M15.3201 10.2542C16.111 9.21503 16.7208 7.77939 17.0503 7C17.6271 7.77939 18.8796 9.73462 19.2751 10.7738C19.7694 12.0728 18.5335 13.6316 17.0503 13.6316C15.5672 13.6316 14.3313 11.5532 15.3201 10.2542Z" fill="#F0AD4E" stroke="#4A4A4A" stroke-width="1.5" stroke-linecap="round" stroke-linejoin="round"/>
<path d="M17.1752 13.6316V18.0526" stroke="#4A4A4A" stroke-width="1.5" stroke-linecap="round" stroke-linejoin="round"/>
</svg>
