<svg width="33" height="33" viewBox="0 0 33 33" fill="none" xmlns="http://www.w3.org/2000/svg">
<path d="M16.4997 26.2497C21.8845 26.2497 26.2497 21.8845 26.2497 16.4997C26.2497 11.115 21.8845 6.74976 16.4997 6.74976C11.115 6.74976 6.74976 11.115 6.74976 16.4997C6.74976 21.8845 11.115 26.2497 16.4997 26.2497Z" fill="#EDECD8"/>
<path fill-rule="evenodd" clip-rule="evenodd" d="M16.5 6C10.7047 6 6 10.7047 6 16.5C6 22.2953 10.7047 27 16.5 27C22.2953 27 27 22.2953 27 16.5C27 10.7047 22.2953 6 16.5 6ZM16.5 7.5C21.4673 7.5 25.5 11.5327 25.5 16.5C25.5 21.4673 21.4673 25.5 16.5 25.5C11.5327 25.5 7.5 21.4673 7.5 16.5C7.5 11.5327 11.5327 7.5 16.5 7.5ZM19.767 18.024C20.5815 18.1717 21.1238 18.9525 20.976 19.767C20.8283 20.5815 20.0475 21.1238 19.233 20.976C18.4185 20.8283 17.8762 20.0475 18.024 19.233C18.1717 18.4185 18.9525 17.8762 19.767 18.024ZM19.7197 12.2197L12.2197 19.7197C11.9272 20.0122 11.9272 20.4878 12.2197 20.7803C12.5122 21.0728 12.9878 21.0728 13.2803 20.7803L20.7803 13.2803C21.0728 12.9878 21.0728 12.5122 20.7803 12.2197C20.4878 11.9272 20.0122 11.9272 19.7197 12.2197ZM13.767 12.024C14.5815 12.1718 15.1238 12.9525 14.976 13.767C14.8283 14.5815 14.0475 15.1237 13.233 14.976C12.4185 14.8282 11.8762 14.0475 12.024 13.233C12.1717 12.4185 12.9525 11.8763 13.767 12.024Z" fill="#4A4A4A"/>
</svg>
