<svg width="33" height="33" viewBox="0 0 33 33" fill="none" xmlns="http://www.w3.org/2000/svg">
<g clip-path="url(#clip0_1448_7)">
<mask id="path-2-inside-1_1448_7" fill="white">
<path d="M7 18H25V24H7V18Z"/>
</mask>
<path d="M7 18H25V24H7V18Z" fill="#C9A777"/>
<path d="M7 19.5H25V16.5H7V19.5Z" fill="#4A4A4A" mask="url(#path-2-inside-1_1448_7)"/>
<path d="M24.2031 7.96875H7.79688C7.36175 7.96875 6.94445 8.1416 6.63678 8.44928C6.3291 8.75695 6.15625 9.17425 6.15625 9.60938V23.3906C6.15625 23.8257 6.3291 24.243 6.63678 24.5507C6.94445 24.8584 7.36175 25.0312 7.79688 25.0312H24.2031C24.6382 25.0313 25.0555 24.8584 25.3632 24.5507C25.6709 24.243 25.8438 23.8257 25.8438 23.3906V9.60938C25.8438 9.17425 25.6709 8.75695 25.3632 8.44928C25.0555 8.1416 24.6382 7.96875 24.2031 7.96875ZM7.79688 7.96875H24.2031V14.5312L7.79688 16.1719V7.96875ZM7.79688 23.3906V16.1719L24.2031 14.5312V23.3906H7.79688Z" fill="#4A4A4A"/>
<rect x="9" y="21" width="4" height="1" rx="0.5" fill="#4A4A4A"/>
<rect x="14" y="21" width="4" height="1" rx="0.5" fill="#4A4A4A"/>
<rect x="19" y="21" width="4" height="1" rx="0.5" fill="#4A4A4A"/>
</g>
<rect x="6.16" y="9" width="1.64" height="6" rx="0.82" fill="#4A4A4A"/>
<rect x="24.2" y="9" width="1.64" height="6" rx="0.82" fill="#4A4A4A"/>
<path fill-rule="evenodd" clip-rule="evenodd" d="M29 19C29.5523 19 30 19.4477 30 20C30 20.5523 29.5523 21 29 21C28.4477 21 28 20.5523 28 20C28 19.4477 28.4477 19 29 19ZM29 13C29.2762 13 29.5 13.2239 29.5 13.5V16.2929L30.1465 15.6465C30.3417 15.4512 30.6583 15.4512 30.8536 15.6465C31.0488 15.8417 31.0488 16.1583 30.8536 16.3536L29 18.2071L27.1464 16.3536C26.9512 16.1583 26.9512 15.8417 27.1464 15.6465C27.3417 15.4512 27.6583 15.4512 27.8536 15.6465L28.5 16.2929V13.5C28.5 13.2239 28.7239 13 29 13Z" fill="#4A4A4A"/>
<defs>
<clipPath id="clip0_1448_7">
<rect width="21" height="17" fill="white" transform="translate(6 10)"/>
</clipPath>
</defs>
</svg>
