<svg width="34" height="33" viewBox="0 0 34 33" fill="none" xmlns="http://www.w3.org/2000/svg">
<path d="M21.6667 6H12.3333C11.0447 6 10 7.04467 10 8.33333V24.6667C10 25.9553 11.0447 27 12.3333 27H21.6667C22.9553 27 24 25.9553 24 24.6667V8.33333C24 7.04467 22.9553 6 21.6667 6Z" fill="#EDECD8" stroke="#4A4A4A" stroke-width="1.5"/>
<path d="M13.5 6.66663C13.5 7.20911 13.5 7.48035 13.5596 7.70289C13.7214 8.30681 14.1932 8.77851 14.7971 8.94033C15.0196 8.99996 15.2908 8.99996 15.8333 8.99996H18.1667C18.7092 8.99996 18.9804 8.99996 19.2029 8.94033C19.8069 8.77851 20.2786 8.30681 20.4404 7.70289C20.5 7.48035 20.5 7.20911 20.5 6.66663" fill="#D7C19A"/>
<path d="M13.5 6.66663C13.5 7.20911 13.5 7.48035 13.5596 7.70289C13.7214 8.30681 14.1932 8.77851 14.7971 8.94033C15.0196 8.99996 15.2908 8.99996 15.8333 8.99996H18.1667C18.7092 8.99996 18.9804 8.99996 19.2029 8.94033C19.8069 8.77851 20.2786 8.30681 20.4404 7.70289C20.5 7.48035 20.5 7.20911 20.5 6.66663" stroke="#4A4A4A" stroke-width="1.5"/>
<path d="M17.4167 23.5C17.4167 23.7302 17.2301 23.9167 17 23.9167C16.7699 23.9167 16.5833 23.7302 16.5833 23.5C16.5833 23.2699 16.7699 23.0834 17 23.0834C17.2301 23.0834 17.4167 23.2699 17.4167 23.5Z" fill="#C9A777" stroke="#C9A777" stroke-width="1.5"/>
</svg>
