<svg width="33" height="33" viewBox="0 0 33 33" fill="none" xmlns="http://www.w3.org/2000/svg">
<path d="M24.375 16.5C24.375 20.8493 20.8493 24.375 16.5 24.375C12.1508 24.375 8.625 20.8493 8.625 16.5C8.625 12.1508 12.1508 8.625 16.5 8.625C20.8493 8.625 24.375 12.1508 24.375 16.5Z" fill="#EDECD8"/>
<path d="M16.5 20.875V20.8688M16.5 19C16.5 16.1875 19.125 16.8125 19.125 14.625C19.125 13.2443 17.9497 12.125 16.5 12.125C15.3246 12.125 14.3297 12.8607 13.9952 13.875M24.375 16.5C24.375 20.8493 20.8493 24.375 16.5 24.375C12.1508 24.375 8.625 20.8493 8.625 16.5C8.625 12.1508 12.1508 8.625 16.5 8.625C20.8493 8.625 24.375 12.1508 24.375 16.5Z" stroke="#4A4A4A" stroke-width="1.5" stroke-linecap="round" stroke-linejoin="round"/>
</svg>
